<svg width="30" height="31" viewBox="0 0 30 31" fill="none" xmlns="http://www.w3.org/2000/svg">
<path d="M6.59998 8.36266H3.89997C3.53722 8.38982 3.17274 8.3434 2.82838 8.22618C2.48401 8.10897 2.16692 7.92336 1.89607 7.68053C1.62522 7.4377 1.40618 7.14264 1.25221 6.81307C1.09823 6.4835 1.01247 6.12621 1.00001 5.76265C0.998198 5.05343 1.26559 4.36995 1.74818 3.85024C2.23077 3.33053 2.89257 3.01332 3.59998 2.96267L19.6 1.06267C20.1672 0.963571 20.7488 0.982159 21.3085 1.1173C21.8683 1.25244 22.3942 1.50123 22.8538 1.84822C23.3133 2.19522 23.6965 2.63299 23.9797 3.13436C24.2629 3.63572 24.4401 4.18996 24.5 4.76265C24.53 5.51294 24.3371 6.25533 23.9455 6.89605C23.554 7.53676 22.9814 8.0471 22.3 8.36266" fill="url(#paint0_linear_456_1245)"/>
<path d="M6.59998 8.36266H3.89997C3.53722 8.38982 3.17274 8.3434 2.82838 8.22618C2.48401 8.10897 2.16692 7.92336 1.89607 7.68053C1.62522 7.4377 1.40618 7.14264 1.25221 6.81307C1.09823 6.4835 1.01247 6.12621 1.00001 5.76265C0.998198 5.05343 1.26559 4.36995 1.74818 3.85024C2.23077 3.33053 2.89257 3.01332 3.59998 2.96267L19.6 1.06267C20.1672 0.963571 20.7488 0.982159 21.3085 1.1173C21.8683 1.25244 22.3942 1.50123 22.8538 1.84822C23.3133 2.19522 23.6965 2.63299 23.9797 3.13436C24.2629 3.63572 24.4401 4.18996 24.5 4.76265C24.53 5.51294 24.3371 6.25533 23.9455 6.89605C23.554 7.53676 22.9814 8.0471 22.3 8.36266" stroke="#363841" stroke-width="2" stroke-linecap="round" stroke-linejoin="round"/>
<path d="M24.5 4.66243C25.1478 4.24067 25.923 4.0597 26.6906 4.15107C27.4582 4.24245 28.1693 4.60038 28.7 5.16243" stroke="#363841" stroke-width="2" stroke-linecap="round" stroke-linejoin="round"/>
<path d="M14.1002 29.2631C13.8289 29.2634 13.5604 29.2086 13.311 29.1019C13.0616 28.9952 12.8365 28.8388 12.6494 28.6424C12.4623 28.446 12.3171 28.2135 12.2227 27.9592C12.1283 27.7049 12.0866 27.434 12.1002 27.1631L13.0002 16.1631H15.3002L16.2002 27.1631C16.2002 27.72 15.9789 28.2542 15.5851 28.648C15.1913 29.0418 14.6571 29.2631 14.1002 29.2631Z" stroke="#363841" stroke-width="2" stroke-linecap="round" stroke-linejoin="round"/>
<path d="M18.1 12.1631C17.9479 13.1279 17.4564 14.0068 16.7139 14.6414C15.9714 15.276 15.0267 15.6247 14.05 15.6247C13.0732 15.6247 12.1286 15.276 11.3861 14.6414C10.6436 14.0068 10.1521 13.1279 10 12.1631" stroke="#363841" stroke-width="2" stroke-linecap="round" stroke-linejoin="round"/>
<path d="M10 6.7627V12.1627" stroke="#363841" stroke-width="2" stroke-linecap="round" stroke-linejoin="round"/>
<path d="M14.1001 6.7627V11.9627" stroke="#363841" stroke-width="2" stroke-linecap="round" stroke-linejoin="round"/>
<path d="M18.1001 6.7627V12.1627" stroke="#363841" stroke-width="2" stroke-linecap="round" stroke-linejoin="round"/>
<defs>
<linearGradient id="paint0_linear_456_1245" x1="1.08173" y1="2.14625" x2="5.94629" y2="15.2596" gradientUnits="userSpaceOnUse">
<stop stop-color="#FFA654"/>
<stop offset="1" stop-color="#F26702"/>
</linearGradient>
</defs>
</svg>
