<svg width="32" height="32" viewBox="0 0 32 32" fill="none" xmlns="http://www.w3.org/2000/svg">
<path d="M22 2V2.39996C22 3.96474 21.3784 5.46543 20.2719 6.5719C19.1655 7.67836 17.6648 8.29999 16.1 8.29999V7.89996C16.1 6.33519 16.7216 4.83449 17.8281 3.72803C18.9345 2.62156 20.4352 2 22 2Z" stroke="black" stroke-width="2" stroke-linejoin="round"/>
<path d="M8 13H25L26 21H7L8 13Z" fill="url(#paint0_linear_456_1233)"/>
<path d="M3.09998 26.3008H29.8C29.8 27.2821 29.4102 28.2232 28.7163 28.9171C28.0224 29.611 27.0813 30.0008 26.1 30.0008H6.70001C5.71871 30.0008 4.77756 29.611 4.08368 28.9171C3.38979 28.2232 3 27.2821 3 26.3008H3.09998Z" stroke="black" stroke-width="2" stroke-linecap="round" stroke-linejoin="round"/>
<path d="M13.0999 14.1005C12.8891 13.5039 12.4952 12.9892 11.9744 12.63C11.4535 12.2708 10.8324 12.0854 10.1999 12.1005C9.41804 12.1215 8.67096 12.4281 8.09979 12.9624C7.52863 13.4967 7.1729 14.2217 7.09985 15.0005L5.8999 21.8005" stroke="black" stroke-width="2" stroke-linecap="round" stroke-linejoin="round"/>
<path d="M19.7002 14.1006C19.9349 13.52 20.3347 13.0211 20.8502 12.6656C21.3657 12.3101 21.9741 12.1136 22.6002 12.1006C23.382 12.1216 24.1291 12.4282 24.7003 12.9626C25.2714 13.4969 25.6272 14.2219 25.7002 15.0006L26.9002 21.8006" stroke="black" stroke-width="2" stroke-linecap="round" stroke-linejoin="round"/>
<path d="M20.5002 22.5005L19.8002 15.0005C19.7037 14.1601 19.3062 13.3832 18.6812 12.8133C18.0561 12.2434 17.2459 11.9191 16.4002 11.9005C15.5373 11.8948 14.7026 12.2082 14.0566 12.7803C13.4106 13.3525 12.9988 14.1432 12.9002 15.0005L12.2002 22.5005" fill="url(#paint1_linear_456_1233)"/>
<path d="M20.5002 22.5005L19.8002 15.0005C19.7037 14.1601 19.3062 13.3832 18.6812 12.8133C18.0561 12.2434 17.2459 11.9191 16.4002 11.9005C15.5373 11.8948 14.7026 12.2082 14.0566 12.7803C13.4106 13.3525 12.9988 14.1432 12.9002 15.0005L12.2002 22.5005" stroke="black" stroke-width="2" stroke-linecap="round" stroke-linejoin="round"/>
<defs>
<linearGradient id="paint0_linear_456_1233" x1="7.5" y1="24.5" x2="7.40052" y2="10.5937" gradientUnits="userSpaceOnUse">
<stop stop-color="#FF7D7D"/>
<stop offset="1" stop-color="#FF0440"/>
</linearGradient>
<linearGradient id="paint1_linear_456_1233" x1="12.1945" y1="22.5129" x2="22.9957" y2="16.0678" gradientUnits="userSpaceOnUse">
<stop stop-color="#FF7DAC"/>
<stop offset="1" stop-color="#FF0440"/>
</linearGradient>
</defs>
</svg>
