<svg width="29" height="29" viewBox="0 0 29 29" fill="none" xmlns="http://www.w3.org/2000/svg">
<path d="M10.8 19.9965L7.90002 22.8965C8.33216 23.3989 8.57919 24.0341 8.60001 24.6965C8.57414 25.3686 8.28884 26.0045 7.80402 26.4706C7.3192 26.9368 6.67258 27.197 6 27.1965C5.33696 27.1965 4.70108 26.9331 4.23224 26.4642C3.7634 25.9954 3.5 25.3595 3.5 24.6965C2.83696 24.6965 2.20108 24.4331 1.73224 23.9642C1.2634 23.4954 1 22.8595 1 22.1965C0.999503 21.5239 1.25969 20.8773 1.72586 20.3925C2.19203 19.9076 2.82792 19.6224 3.5 19.5965C4.16236 19.6173 4.79762 19.8643 5.30002 20.2964L8.20001 17.3965" stroke="black" stroke-width="2" stroke-linecap="round" stroke-linejoin="round"/>
<path d="M24.2001 3.99628L25.7001 5.49628C26.6589 6.46919 27.1964 7.78033 27.1964 9.1463C27.1964 10.5123 26.6589 11.8233 25.7001 12.7963L25.1001 13.3963C22.3091 16.1203 18.8661 18.0828 15.1001 19.0963L10.9001 20.0963L9.50009 18.6963L8.1001 17.2963L9.2001 13.0963C10.1339 9.32699 12.1091 5.89631 14.9001 3.19629L15.5001 2.49628C16.473 1.53747 17.7841 1 19.1501 1C20.5161 1 21.8272 1.53747 22.8001 2.49628L24.2001 3.99628Z" fill="url(#paint0_linear_456_1230)" stroke="black" stroke-width="2" stroke-linecap="round" stroke-linejoin="round"/>
<defs>
<linearGradient id="paint0_linear_456_1230" x1="8.1665" y1="3.96996" x2="27.2231" y2="20.0789" gradientUnits="userSpaceOnUse">
<stop stop-color="#FFA654"/>
<stop offset="1" stop-color="#F26702"/>
</linearGradient>
</defs>
</svg>
