<svg width="28" height="31" viewBox="0 0 28 31" fill="none" xmlns="http://www.w3.org/2000/svg">
<path d="M8.63672 20.1162L11.6773 23.1568L5.45476 29.3793C5.07969 29.7544 4.57098 29.9651 4.04055 29.9651C3.51011 29.9651 3.00141 29.7544 2.62633 29.3793L2.4849 29.2379C2.10983 28.8628 1.89911 28.3541 1.89911 27.8237C1.89911 27.2932 2.10983 26.7845 2.4849 26.4095L8.70743 20.1869L8.63672 20.1162Z" stroke="black" stroke-width="2" stroke-linecap="round" stroke-linejoin="round"/>
<path d="M23.6689 4.59619L26.9216 7.84889L11.7188 23.0517L3.86996 15.2028L14.4766 4.59619C15.6955 3.37721 17.3488 2.69239 19.0728 2.69239C20.7967 2.69239 22.45 3.37721 23.6689 4.59619Z" fill="#706DF7" stroke="black" stroke-width="2" stroke-linecap="round" stroke-linejoin="round"/>
<path d="M16.9921 11.6221L11.8921 16.6221" stroke="black" stroke-width="2" stroke-linecap="round" stroke-linejoin="round"/>
</svg>
