<svg width="28" height="33" viewBox="0 0 28 33" fill="none" xmlns="http://www.w3.org/2000/svg">
<path d="M0 32.46V17.0029L2.4345 9.85393C2.6406 9.18412 3.02702 8.66244 3.59379 8.28889C4.16055 7.91535 4.76595 7.72857 5.41 7.72857C5.6161 7.72857 5.82219 7.74789 6.02829 7.78654C6.23438 7.82518 6.44048 7.89602 6.64657 7.99907L13.0613 10.82H17.0029V13.9114H12.3657L8.19229 12.0952L6.18286 18.1621V32.46H0ZM9.27429 27.8229V24.7314H27.8229V27.8229H9.27429ZM25.5043 23.1857C24.8602 23.1857 24.3128 22.9603 23.862 22.5095C23.4111 22.0586 23.1857 21.5112 23.1857 20.8671C23.1857 20.2231 23.4111 19.6757 23.862 19.2248C24.3128 18.774 24.8602 18.5486 25.5043 18.5486C26.1483 18.5486 26.6958 18.774 27.1466 19.2248C27.5974 19.6757 27.8229 20.2231 27.8229 20.8671C27.8229 21.5112 27.5974 22.0586 27.1466 22.5095C26.6958 22.9603 26.1483 23.1857 25.5043 23.1857ZM15.4571 23.1857C14.607 23.1857 13.8792 22.883 13.2738 22.2776C12.6684 21.6722 12.3657 20.9444 12.3657 20.0943V18.5486H9.27429V15.4571H13.9114C14.3494 15.4571 14.7165 15.6053 15.0127 15.9015C15.309 16.1978 15.4571 16.5649 15.4571 17.0029V18.5486H18.5486V15.4571H21.64V20.0943C21.64 20.9444 21.3373 21.6722 20.7319 22.2776C20.1265 22.883 19.3987 23.1857 18.5486 23.1857H15.4571ZM7.72857 6.18286C6.87843 6.18286 6.15065 5.88015 5.54525 5.27475C4.93985 4.66935 4.63714 3.94157 4.63714 3.09143C4.63714 2.24129 4.93985 1.51351 5.54525 0.908107C6.15065 0.302702 6.87843 0 7.72857 0C8.57871 0 9.30649 0.302702 9.91189 0.908107C10.5173 1.51351 10.82 2.24129 10.82 3.09143C10.82 3.94157 10.5173 4.66935 9.91189 5.27475C9.30649 5.88015 8.57871 6.18286 7.72857 6.18286Z" fill="#706DF7"/>
</svg>
