<svg width="32" height="32" viewBox="0 0 32 32" fill="none" xmlns="http://www.w3.org/2000/svg">
<path fill-rule="evenodd" clip-rule="evenodd" d="M19.1633 6.02132C19.569 4.845 20.6858 4 22 4H25C25.5523 4 26 4.44772 26 5V9C26 9.55228 25.5523 10 25 10H22C21.6481 10 21.3104 9.93942 20.9967 9.82811C20.9989 9.88706 21 9.94441 21 10C21 10.5523 20.5523 11 20 11C19.4477 11 19 10.5523 19 10C19 9.49336 18.8398 8.71113 18.3885 8.0843C17.9739 7.50847 17.2741 7 16 7C15.4477 7 15 6.55228 15 6C15 5.44772 15.4477 5 16 5C17.3485 5 18.3902 5.40439 19.1633 6.02132ZM22 6C21.4477 6 21 6.44772 21 7C21 7.55228 21.4477 8 22 8H24V6H22Z" fill="#706DF7"/>
<path d="M4 10C3.44772 10 3 10.4477 3 11V14H5V12H11.8936C12.7047 12.1894 13.077 12.661 13.2771 13.1013C13.3875 13.344 13.4448 13.5818 13.4737 13.7608C13.4879 13.8488 13.4945 13.9185 13.4976 13.9619C13.4991 13.9834 13.4997 13.9981 13.4999 14.0049C13.5 14.0083 13.5001 14.0089 13.5001 14.0089L13.5 14.0061L13.5 14.0035L13.5 14.0018C13.5 14.0018 13.5 14 14.5 14C15.5 14 15.5 13.999 15.5 13.999L15.5 13.9979L15.5 13.9956L15.5 13.9903L15.4998 13.9767C15.4996 13.9665 15.4993 13.9538 15.4988 13.9387C15.4978 13.9086 15.496 13.8691 15.4926 13.8214C15.4859 13.7261 15.473 13.5965 15.4482 13.4423C15.3989 13.1369 15.3 12.7185 15.0979 12.2737C14.6803 11.3549 13.8224 10.3447 12.1961 10.0194C12.1315 10.0065 12.0659 10 12 10H4Z" fill="#706DF7"/>
<path d="M9 21C7.89543 21 7 21.8954 7 23C7 24.1046 7.89543 25 9 25C10.1046 25 11 24.1046 11 23H13C13 25.2091 11.2091 27 9 27C6.79086 27 5 25.2091 5 23C5 20.7909 6.79086 19 9 19V21Z" fill="#706DF7"/>
<path d="M27 23C27 21.8954 27.1046 20 26 20L25 19C26.8638 19 28.556 20.2748 29 22C29 22 29 22.6547 29 23C29 25.2091 27.2091 27 25 27C22.7909 27 21 25.2091 21 23H23C23 24.1046 23.8954 25 25 25C26.1046 25 27 24.1046 27 23Z" fill="#706DF7"/>
<path fill-rule="evenodd" clip-rule="evenodd" d="M20 9C19.4477 9 19 9.44772 19 10V18H14.741C14.7174 17.8712 14.697 17.722 14.685 17.5538C14.6346 16.8491 14.7284 15.7792 15.3944 14.4472C15.6414 13.9532 15.4412 13.3526 14.9472 13.1056C14.4532 12.8586 13.8526 13.0588 13.6056 13.5528C12.7716 15.2208 12.6154 16.6509 12.6901 17.6962C12.7271 18.2149 12.8203 18.6312 12.9094 18.928C12.9539 19.0764 12.9974 19.1951 13.0325 19.2822C13.0501 19.3257 13.0656 19.3614 13.078 19.389C13.0811 19.3957 13.0839 19.4019 13.0866 19.4076C13.1097 19.4592 13.137 19.5086 13.1681 19.5551C13.2496 19.6775 13.3548 19.7772 13.4744 19.8509C13.638 19.9517 13.8284 20.0041 14.0217 20H24.8939C25.753 20.1989 26.2708 20.7168 26.5939 21.2244C26.6258 21.2745 26.6556 21.3243 26.6834 21.3734C26.5054 21.4226 26.3048 21.4745 26.0835 21.5266C25.0784 21.7631 23.6567 22 22 22H9.83459L9.42128 19.7268C9.09762 17.9466 8.18005 16.3288 6.81836 15.1373L4.65852 13.2474C4.24288 12.8837 3.61112 12.9259 3.24744 13.3415C2.88375 13.7571 2.92587 14.3889 3.34151 14.7526L5.50135 16.6424C6.52262 17.536 7.21079 18.7495 7.45354 20.0846L8.01303 23.1617C8.0277 23.252 8.05444 23.3381 8.09154 23.4185C8.15453 23.5555 8.24686 23.6741 8.35923 23.7678C8.53976 23.9183 8.77201 24.0046 9.01743 24H22C23.8433 24 25.4216 23.7369 26.5416 23.4734C27.1024 23.3415 27.5509 23.2088 27.8632 23.1075C28.0195 23.0568 28.1419 23.0139 28.2275 22.9828C28.2703 22.9672 28.304 22.9546 28.3281 22.9453L28.357 22.9342L28.3661 22.9306L28.3692 22.9294L28.3704 22.9289L27.8632 23.1075L28.3714 22.9285C28.819 22.7494 29.0751 22.2766 28.9806 21.8039L28.9802 21.802L28.9798 21.7999L28.9788 21.7949L28.9761 21.7822C28.974 21.7725 28.9713 21.7604 28.968 21.746C28.9613 21.7172 28.952 21.6792 28.9397 21.6331C28.915 21.5411 28.878 21.4159 28.8253 21.2672C28.7203 20.9715 28.5493 20.5719 28.2812 20.1506C27.8386 19.4552 27.1171 18.6833 26 18.2519V14C26 11.2386 23.7614 9 21 9H20ZM24 18V14C24 12.3431 22.6569 11 21 11V18H24ZM27.0196 22.1976C27.0204 22.201 27.0209 22.2034 27.0209 22.2034L27.0205 22.2015L27.0201 22.1992L27.0196 22.1976Z" fill="#706DF7"/>
</svg>
