<svg width="30" height="28" viewBox="0 0 30 28" fill="none" xmlns="http://www.w3.org/2000/svg">
<rect x="7" y="7" width="16" height="13" fill="#6153F6"/>
<path d="M8.10004 10.6412C7.65643 9.66687 7.41814 8.61164 7.40002 7.54121C7.61053 5.73958 8.47539 4.07801 9.83038 2.87212C11.1854 1.66622 12.9361 1 14.75 1C16.5639 1 18.3146 1.66622 19.6696 2.87212C21.0246 4.07801 21.8895 5.73958 22.1 7.54121C22.0711 8.61031 21.8333 9.66342 21.4 10.6412" fill="url(#paint0_linear_456_1210)"/>
<path d="M7.00002 19.1412C5.31394 18.8361 3.78891 17.9476 2.69197 16.6313C1.59504 15.3149 0.996103 13.6547 1.00002 11.9412C1.00002 7.94122 3.70003 5.44122 7.70003 5.44122" fill="url(#paint1_linear_456_1210)"/>
<path d="M21.7 5.44122C25.8 5.44122 28.5 7.94122 28.5 11.9412C28.5039 13.6547 27.905 15.3149 26.808 16.6313C25.7111 17.9476 24.1861 18.8361 22.5 19.1412" fill="url(#paint2_linear_456_1210)"/>
<path d="M7.00002 19.1412L7 26.7412H22.4V19.1412" fill="url(#paint3_linear_456_1210)"/>
<path d="M8.10004 10.6412C7.65643 9.66688 7.41814 8.61164 7.40002 7.54121C7.61053 5.73958 8.47539 4.07801 9.83038 2.87212C11.1854 1.66622 12.9361 1 14.75 1C16.5639 1 18.3146 1.66622 19.6696 2.87212C21.0246 4.07801 21.8895 5.73958 22.1 7.54121C22.0711 8.61031 21.8333 9.66342 21.4 10.6412M7.70003 5.44122C3.70003 5.44122 1.00002 7.94122 1.00002 11.9412C0.996103 13.6547 1.59504 15.3149 2.69197 16.6313C3.78891 17.9476 5.31394 18.8361 7.00002 19.1412L7 26.7412H22.4V19.1412M21.7 5.44122C25.8 5.44122 28.5 7.94122 28.5 11.9412C28.5039 13.6547 27.905 15.3149 26.808 16.6313C25.7111 17.9476 24.1861 18.8361 22.5 19.1412M7 22.9412H22.4" stroke="black" stroke-width="2" stroke-linecap="round" stroke-linejoin="round"/>
<path d="M14.7002 22.9414V18.9414" stroke="black" stroke-width="2" stroke-linecap="round" stroke-linejoin="round"/>
<defs>
<linearGradient id="paint0_linear_456_1210" x1="15.5" y1="28.5" x2="16.2495" y2="2.04957" gradientUnits="userSpaceOnUse">
<stop offset="0.161985" stop-color="#6851F5" stop-opacity="0"/>
<stop offset="0.231939" stop-color="#6851F5"/>
</linearGradient>
<linearGradient id="paint1_linear_456_1210" x1="15.5" y1="28.5" x2="16.2495" y2="2.04957" gradientUnits="userSpaceOnUse">
<stop offset="0.161985" stop-color="#6851F5" stop-opacity="0"/>
<stop offset="0.231939" stop-color="#6851F5"/>
</linearGradient>
<linearGradient id="paint2_linear_456_1210" x1="15.5" y1="28.5" x2="16.2495" y2="2.04957" gradientUnits="userSpaceOnUse">
<stop offset="0.161985" stop-color="#6851F5" stop-opacity="0"/>
<stop offset="0.231939" stop-color="#6851F5"/>
</linearGradient>
<linearGradient id="paint3_linear_456_1210" x1="15.5" y1="28.5" x2="16.2495" y2="2.04957" gradientUnits="userSpaceOnUse">
<stop offset="0.161985" stop-color="#6851F5" stop-opacity="0"/>
<stop offset="0.231939" stop-color="#6851F5"/>
</linearGradient>
</defs>
</svg>
