<svg width="31" height="27" viewBox="0 0 31 27" fill="none" xmlns="http://www.w3.org/2000/svg">
<path d="M3.90283 20H26.5028V21.5C26.5028 22.5609 26.0814 23.5783 25.3312 24.3284C24.5811 25.0786 23.5637 25.5 22.5028 25.5H7.90283C6.84197 25.5 5.82455 25.0786 5.0744 24.3284C4.32426 23.5783 3.90283 22.5609 3.90283 21.5V20Z" fill="url(#paint0_linear_456_1268)" stroke="#363841" stroke-width="2" stroke-linecap="round" stroke-linejoin="round"/>
<path d="M23.8028 13.9002H26.4028C26.8051 13.8868 27.206 13.9545 27.5816 14.0992C27.9572 14.244 28.2998 14.4628 28.5891 14.7428C28.8783 15.0227 29.1082 15.358 29.2652 15.7286C29.4222 16.0993 29.503 16.4977 29.5028 16.9002C29.5028 17.7224 29.1762 18.5109 28.5948 19.0923C28.0134 19.6736 27.225 20.0002 26.4028 20.0002H4.00276C3.60024 20.0005 3.20181 19.9197 2.83116 19.7627C2.46051 19.6057 2.12522 19.3757 1.84529 19.0865C1.56537 18.7972 1.34651 18.4546 1.20177 18.079C1.05702 17.7034 0.989346 17.3025 1.00276 16.9002C0.988795 16.5025 1.05686 16.1062 1.20268 15.7359C1.3485 15.3656 1.56898 15.0292 1.85039 14.7478C2.1318 14.4664 2.4681 14.246 2.8384 14.1001C3.20869 13.9543 3.60503 13.8863 4.00276 13.9002H12.8028" fill="url(#paint1_linear_456_1268)"/>
<path d="M23.8028 13.9002H26.4028C26.8051 13.8868 27.206 13.9545 27.5816 14.0992C27.9572 14.244 28.2998 14.4628 28.5891 14.7428C28.8783 15.0227 29.1082 15.358 29.2652 15.7286C29.4222 16.0993 29.503 16.4977 29.5028 16.9002C29.5028 17.7224 29.1762 18.5109 28.5948 19.0923C28.0134 19.6736 27.225 20.0002 26.4028 20.0002H4.00276C3.60024 20.0005 3.20181 19.9197 2.83116 19.7627C2.46051 19.6057 2.12522 19.3757 1.84529 19.0865C1.56537 18.7972 1.34651 18.4546 1.20177 18.079C1.05702 17.7034 0.989346 17.3025 1.00276 16.9002C0.988795 16.5025 1.05686 16.1062 1.20268 15.7359C1.3485 15.3656 1.56898 15.0292 1.85039 14.7478C2.1318 14.4664 2.4681 14.246 2.8384 14.1001C3.20869 13.9543 3.60503 13.8863 4.00276 13.9002H12.8028" stroke="#363841" stroke-width="2" stroke-linecap="round" stroke-linejoin="round"/>
<path d="M29.5026 11.9004C29.4951 12.4279 29.2795 12.9311 28.9027 13.3004C28.7273 13.4967 28.5111 13.6521 28.2692 13.7558C28.0273 13.8595 27.7657 13.9088 27.5026 13.9004H22.3027L18.9027 17.8004L15.5026 13.9004H2.90266C2.6445 13.9008 2.38897 13.8485 2.15168 13.7468C1.91439 13.6452 1.7003 13.4962 1.5225 13.309C1.3447 13.1219 1.20691 12.9004 1.11753 12.6583C1.02815 12.4161 0.989046 12.1582 1.00263 11.9004C0.989046 11.6426 1.02815 11.3847 1.11753 11.1425C1.20691 10.9004 1.3447 10.6789 1.5225 10.4918C1.7003 10.3046 1.91439 10.1556 2.15168 10.054C2.38897 9.9523 2.6445 9.90003 2.90266 9.90039H27.5026C28.0331 9.90039 28.5418 10.1111 28.9169 10.4862C29.292 10.8613 29.5026 11.37 29.5026 11.9004Z" fill="white" stroke="#363841" stroke-width="2" stroke-linecap="round" stroke-linejoin="round"/>
<path d="M12.5028 1H18.0028C20.2837 1 22.4711 1.90606 24.0839 3.51888C25.6967 5.13169 26.6028 7.31914 26.6028 9.60001H3.90283C3.90283 7.31914 4.80888 5.13169 6.42169 3.51888C8.0345 1.90606 10.2219 1 12.5028 1Z" fill="url(#paint2_linear_456_1268)" stroke="#363841" stroke-width="2" stroke-linecap="round" stroke-linejoin="round"/>
<path d="M9.60254 5.5L10.8026 6.8" stroke="#363841" stroke-width="2" stroke-linecap="round" stroke-linejoin="round"/>
<path d="M20.4028 5L21.7028 6.39999" stroke="#363841" stroke-width="2" stroke-linecap="round" stroke-linejoin="round"/>
<path d="M14.4028 5.59981L15.8028 4.2998" stroke="#363841" stroke-width="2" stroke-linecap="round" stroke-linejoin="round"/>
<defs>
<linearGradient id="paint0_linear_456_1268" x1="3.98142" y1="20.8554" x2="6.94108" y2="31.1358" gradientUnits="userSpaceOnUse">
<stop stop-color="#FFA654"/>
<stop offset="1" stop-color="#F26702"/>
</linearGradient>
<linearGradient id="paint1_linear_456_1268" x1="29.5028" y1="20.0002" x2="27.0047" y2="8.33145" gradientUnits="userSpaceOnUse">
<stop stop-color="#FFD15C"/>
<stop offset="1" stop-color="#F3AF00"/>
</linearGradient>
<linearGradient id="paint2_linear_456_1268" x1="3.98177" y1="2.33752" x2="10.4783" y2="16.833" gradientUnits="userSpaceOnUse">
<stop stop-color="#FFA654"/>
<stop offset="1" stop-color="#F26702"/>
</linearGradient>
</defs>
</svg>
