<svg width="28" height="28" viewBox="0 0 28 28" fill="none" xmlns="http://www.w3.org/2000/svg">
<path d="M14.7427 10L19.0427 5.7C18.5352 5.19741 18.2475 4.51422 18.2427 3.8C18.2676 3.06532 18.5706 2.36753 19.0904 1.84773C19.6102 1.32794 20.308 1.02493 21.0427 1C21.7678 1.02591 22.4546 1.33233 22.9582 1.85464C23.4619 2.37696 23.7431 3.0744 23.7427 3.8C24.2134 3.77427 24.6829 3.86779 25.1078 4.07188C25.5327 4.27598 25.8992 4.58404 26.1734 4.96751C26.4475 5.35099 26.6204 5.79747 26.676 6.26556C26.7316 6.73366 26.6681 7.20821 26.4914 7.64523C26.3147 8.08226 26.0306 8.46761 25.6653 8.76556C25.3001 9.06351 24.8655 9.26443 24.4019 9.34967C23.9383 9.43491 23.4606 9.40173 23.0133 9.2532C22.5659 9.10467 22.1633 8.8456 21.8427 8.5L17.5427 12.9" stroke="black" stroke-width="2" stroke-linecap="round" stroke-linejoin="round"/>
<path d="M16.1425 18.7996C16.2109 20.5433 15.6691 22.2563 14.6104 23.6435C13.5517 25.0308 12.0424 26.0054 10.3425 26.3996C9.16072 26.678 7.92947 26.6692 6.75181 26.3739C5.57415 26.0787 4.48437 25.5056 3.5737 24.7026C2.66304 23.8997 1.958 22.8902 1.5176 21.7588C1.07721 20.6274 0.914292 19.4069 1.04248 18.1996C1.21567 16.3513 2.06817 14.6329 3.43508 13.3768C4.80199 12.1208 6.58617 11.4163 8.44249 11.3996C9.89756 11.3266 11.2642 10.6792 12.2425 9.59961L13.3425 8.59961L18.6425 13.8996L17.9425 14.6996C17.3765 15.2224 16.9246 15.8564 16.6149 16.5619C16.3051 17.2673 16.1443 18.0291 16.1425 18.7996Z" fill="url(#paint0_linear_456_1263)" stroke="black" stroke-width="2" stroke-linecap="round" stroke-linejoin="round"/>
<defs>
<linearGradient id="paint0_linear_456_1263" x1="20.5145" y1="27.1864" x2="0.633523" y2="9.00024" gradientUnits="userSpaceOnUse">
<stop stop-color="#9C6060"/>
<stop offset="1" stop-color="#9B5139"/>
</linearGradient>
</defs>
</svg>
