<svg width="59" height="74" viewBox="0 0 59 74" fill="none" xmlns="http://www.w3.org/2000/svg">
<g clip-path="url(#clip0_574_1472)">
<path d="M53.2056 9.69612C50.3718 9.69612 48.032 11.7698 47.597 14.4769C47.5633 14.6797 47.5421 14.8866 47.5337 15.0935L47.521 20.1531V7.47887H47.4957C47.5126 7.30571 47.521 7.12833 47.521 6.95095C47.521 3.80879 44.9744 1.26212 41.8322 1.26212C38.69 1.26212 36.2025 3.75389 36.1476 6.84959V13.6069L36.1138 6.21187C36.1307 6.03871 36.1391 5.86133 36.1391 5.68395C36.1391 2.54179 33.5925 -0.00488281 30.4503 -0.00488281C27.3081 -0.00488281 24.7615 2.54179 24.7615 5.68395C24.7615 5.86133 24.7741 6.03871 24.7868 6.21187H24.7615V13.8772C24.7615 14.2658 24.7615 14.6374 24.7615 14.9753V13.8772C24.7404 10.6464 24.3771 5.99225 19.288 5.91623C17.9661 5.89512 16.64 6.29633 15.5757 7.09454C14.5959 7.82941 13.8948 8.88524 13.5823 10.0678C12.9826 12.3273 13.4134 15.064 13.426 17.3826C13.426 20.5712 13.4598 23.7641 13.4809 26.9569L13.4936 29.36C13.4936 29.8119 13.4978 30.2638 13.5021 30.7157C13.5021 30.7199 13.5021 30.7283 13.5021 30.7326C13.5063 31.497 12.7165 32.008 12.0197 31.687C9.75596 30.6439 5.60442 29.3557 3.22668 32.0756C-1.11913 37.0422 4.93291 41.4683 8.20599 44.3275C9.1478 45.151 10.0896 46.0421 10.8709 47.022C10.9005 47.06 10.9554 47.0684 10.9934 47.0431L58.8227 14.9711C58.8522 14.9499 58.8691 14.9162 58.8649 14.8824C58.6115 11.9725 56.1789 9.6919 53.2056 9.6919V9.69612Z" fill="white"/>
<path d="M58.8651 15.9134C58.882 15.7403 58.8904 15.5629 58.8904 15.3855C58.8904 15.2377 58.8777 15.0899 58.8693 14.9463L11.0062 47.0394C10.9598 47.069 10.9513 47.1323 10.9851 47.1746C12.269 48.8343 13.0757 50.7517 12.6449 53.0239C11.8551 57.2092 7.46285 59.6123 3.52248 59.7897C1.81625 59.8657 -1.45261 59.7517 0.722405 62.4039C5.28783 67.9745 12.3028 70.8084 19.2248 72.0796C25.5683 73.2452 32.3087 73.5451 38.7113 72.6624C44.1848 71.9064 50.2283 69.9046 53.9238 65.5756C58.2738 60.4781 58.9791 53.9192 58.996 47.4955C59.0256 36.971 58.8946 26.4464 58.8946 15.9219H58.8693L58.8651 15.9134Z" fill="#E5E6F3"/>
<path d="M36.1308 32.3042C36.1308 30.2679 34.4801 28.6172 32.4438 28.6172C30.4076 28.6172 28.7568 30.2679 28.7568 32.3042V36.7936C28.7568 38.8298 30.4076 40.4805 32.4438 40.4805C34.4801 40.4805 36.1308 38.8298 36.1308 36.7936V32.3042Z" fill="#706DF7"/>
<path d="M49.1049 32.3042C49.1049 30.2679 47.4542 28.6172 45.4179 28.6172C43.3817 28.6172 41.731 30.2679 41.731 32.3042V36.7936C41.731 38.8298 43.3817 40.4805 45.4179 40.4805C47.4542 40.4805 49.1049 38.8298 49.1049 36.7936V32.3042Z" fill="#706DF7"/>
</g>
<defs>
<clipPath id="clip0_574_1472">
<rect width="59" height="73.1693" fill="white"/>
</clipPath>
</defs>
</svg>
