<svg width="77" height="95" viewBox="0 0 77 95" fill="none" xmlns="http://www.w3.org/2000/svg">
<g clip-path="url(#clip0_182_29933)">
<path d="M68.9602 12.5676C65.2873 12.5676 62.2547 15.2553 61.6909 18.7641C61.6471 19.0268 61.6198 19.295 61.6088 19.5633L61.5924 26.121V9.69386H61.5596C61.5815 9.46943 61.5924 9.23953 61.5924 9.00962C61.5924 4.93706 58.2916 1.63631 54.2191 1.63631C50.1465 1.63631 46.9224 4.86589 46.8512 8.87825V17.6365L46.8074 8.05169C46.8293 7.82726 46.8403 7.59736 46.8403 7.36746C46.8403 3.29489 43.5395 -0.00585938 39.467 -0.00585938C35.3944 -0.00585938 32.0937 3.29489 32.0937 7.36746C32.0937 7.59736 32.1101 7.82726 32.1265 8.05169H32.0937V17.9868C32.0937 18.4904 32.0937 18.9721 32.0937 19.41V17.9868C32.0663 13.7993 31.5955 7.76705 24.9995 7.66852C23.2862 7.64115 21.5674 8.16117 20.188 9.19573C18.918 10.1482 18.0094 11.5167 17.6043 13.0493C16.827 15.9779 17.3853 19.5249 17.4018 22.5301C17.4018 26.6629 17.4455 30.8011 17.4729 34.9394L17.4893 38.054C17.4893 38.6397 17.4948 39.2255 17.5003 39.8112C17.5003 39.8166 17.5003 39.8276 17.5003 39.833C17.5058 40.8238 16.4821 41.4862 15.579 41.0701C12.645 39.7181 7.26413 38.0486 4.18233 41.5737C-1.45029 48.011 6.39378 53.7477 10.636 57.4535C11.8567 58.5209 13.0774 59.6759 14.0901 60.9458C14.1284 60.9951 14.1995 61.006 14.2488 60.9732L76.2405 19.4045C76.2788 19.3772 76.3007 19.3334 76.2952 19.2896C75.9668 15.5181 72.8139 12.5622 68.9602 12.5622V12.5676Z" fill="#9595F9"/>
<path d="M76.2952 20.6256C76.3171 20.4012 76.3281 20.1713 76.3281 19.9414C76.3281 19.7498 76.3117 19.5582 76.3007 19.3721L14.2652 60.9681C14.205 61.0064 14.1941 61.0885 14.2378 61.1433C15.9019 63.2945 16.9474 65.7796 16.3891 68.7246C15.3655 74.1492 9.67263 77.2639 4.5655 77.4938C2.35405 77.5923 -1.88274 77.4445 0.936311 80.8821C6.85358 88.1021 15.9457 91.7751 24.9174 93.4227C33.1392 94.9335 41.8755 95.3222 50.1739 94.1781C57.268 93.1983 65.1012 90.6037 69.8908 84.993C75.5289 78.386 76.443 69.8851 76.4649 61.5593C76.5032 47.9184 76.3335 34.2775 76.3335 20.6365H76.3007L76.2952 20.6256Z" fill="url(#paint0_linear_182_29933)"/>
<path d="M45.8167 41.8695C45.8167 39.2303 43.6772 37.0908 41.038 37.0908C38.3988 37.0908 36.2593 39.2303 36.2593 41.8695V47.6883C36.2593 50.3275 38.3988 52.467 41.038 52.467C43.6772 52.467 45.8167 50.3275 45.8167 47.6883V41.8695Z" fill="white"/>
<path d="M62.638 41.8695C62.638 39.2303 60.4985 37.0908 57.8593 37.0908C55.2201 37.0908 53.0806 39.2303 53.0806 41.8695V47.6883C53.0806 50.3275 55.2201 52.467 57.8593 52.467C60.4985 52.467 62.638 50.3275 62.638 47.6883V41.8695Z" fill="white"/>
</g>
<defs>
<linearGradient id="paint0_linear_182_29933" x1="38.8156" y1="31.8963" x2="37.8357" y2="97.0081" gradientUnits="userSpaceOnUse">
<stop stop-color="#8B89FA"/>
<stop offset="0.27" stop-color="#7C7AF8"/>
<stop offset="0.6" stop-color="#7370F7"/>
<stop offset="1" stop-color="#706DF7"/>
</linearGradient>
<clipPath id="clip0_182_29933">
<rect width="76.4701" height="94.835" fill="white"/>
</clipPath>
</defs>
</svg>
