<svg width="26" height="27" viewBox="0 0 26 27" fill="none" xmlns="http://www.w3.org/2000/svg">
<path d="M3 18.5L13 1.5L22 17.5L22.5 19L17 20.5L11 21L6 20L3 18.5Z" fill="url(#paint0_linear_456_1256)"/>
<path d="M24.9 21.7C16.9 26.2 9 26.2 1 21.7Z" stroke="black" stroke-width="2" stroke-linejoin="round"/>
<path d="M2.7002 18.2002C5.77633 20.1145 9.32706 21.1291 12.9502 21.1291C16.5733 21.1291 20.1241 20.1145 23.2002 18.2002" stroke="black" stroke-width="2" stroke-linejoin="round"/>
<path d="M14.9 17.5002C15.9493 17.5002 16.8 16.6496 16.8 15.6002C16.8 14.5509 15.9493 13.7002 14.9 13.7002C13.8507 13.7002 13 14.5509 13 15.6002C13 16.6496 13.8507 17.5002 14.9 17.5002Z" fill="white" stroke="black" stroke-width="2" stroke-linejoin="round"/>
<path d="M12.0998 9.09961C12.0998 9.97482 11.7521 10.8142 11.1333 11.433C10.5144 12.0519 9.67502 12.3996 8.7998 12.3996C8.07915 12.3662 7.38397 12.1229 6.7998 11.6996L9.9998 6.09961C10.5996 6.34714 11.1161 6.76114 11.4882 7.29272C11.8603 7.82431 12.0725 8.4513 12.0998 9.09961Z" fill="white" stroke="black" stroke-width="2" stroke-linejoin="round"/>
<defs>
<linearGradient id="paint0_linear_456_1256" x1="3.06781" y1="4.53274" x2="22.5272" y2="20.9823" gradientUnits="userSpaceOnUse">
<stop stop-color="#FFA654"/>
<stop offset="1" stop-color="#F26702"/>
</linearGradient>
</defs>
</svg>
