<svg width="38" height="33" viewBox="0 0 38 33" fill="none" xmlns="http://www.w3.org/2000/svg">
<path d="M7.91667 32.4583C5.72639 32.4583 3.85938 31.6865 2.31562 30.1427C0.771875 28.599 0 26.7319 0 24.5417C0 22.3514 0.771875 20.4844 2.31562 18.9406C3.85938 17.3969 5.72639 16.625 7.91667 16.625C10.1069 16.625 11.974 17.3969 13.5177 18.9406C15.0615 20.4844 15.8333 22.3514 15.8333 24.5417C15.8333 26.7319 15.0615 28.599 13.5177 30.1427C11.974 31.6865 10.1069 32.4583 7.91667 32.4583ZM7.91667 29.2917C9.23611 29.2917 10.3576 28.8299 11.2812 27.9063C12.2049 26.9826 12.6667 25.8611 12.6667 24.5417C12.6667 23.2222 12.2049 22.1007 11.2812 21.1771C10.3576 20.2535 9.23611 19.7917 7.91667 19.7917C6.59722 19.7917 5.47569 20.2535 4.55208 21.1771C3.62847 22.1007 3.16667 23.2222 3.16667 24.5417C3.16667 25.8611 3.62847 26.9826 4.55208 27.9063C5.47569 28.8299 6.59722 29.2917 7.91667 29.2917ZM17.4167 27.7083V19.7917L12.35 15.3583C12.0333 15.0681 11.7958 14.7316 11.6375 14.349C11.4792 13.9663 11.4 13.5639 11.4 13.1417C11.4 12.7194 11.4858 12.317 11.6573 11.9344C11.8288 11.5517 12.0597 11.2153 12.35 10.925L16.7833 6.49167C17.1 6.175 17.4628 5.9375 17.8719 5.77917C18.2809 5.62083 18.7097 5.54167 19.1583 5.54167C19.6069 5.54167 20.0358 5.62083 20.4448 5.77917C20.8538 5.9375 21.2167 6.175 21.5333 6.49167L24.5417 9.5C25.2806 10.2389 26.125 10.8194 27.075 11.2417C28.025 11.6639 29.0278 11.875 30.0833 11.875V15.0417C28.5792 15.0417 27.1476 14.7514 25.7885 14.1708C24.4295 13.5903 23.2222 12.7722 22.1667 11.7167L20.9 10.45L17.1 14.25L20.5833 17.8917V27.7083H17.4167ZM24.5417 6.33333C23.6708 6.33333 22.9253 6.02326 22.3052 5.40313C21.6851 4.78299 21.375 4.0375 21.375 3.16667C21.375 2.29583 21.6851 1.55035 22.3052 0.930208C22.9253 0.310069 23.6708 0 24.5417 0C25.4125 0 26.158 0.310069 26.7781 0.930208C27.3983 1.55035 27.7083 2.29583 27.7083 3.16667C27.7083 4.0375 27.3983 4.78299 26.7781 5.40313C26.158 6.02326 25.4125 6.33333 24.5417 6.33333ZM30.0833 32.4583C27.8931 32.4583 26.026 31.6865 24.4823 30.1427C22.9385 28.599 22.1667 26.7319 22.1667 24.5417C22.1667 22.3514 22.9385 20.4844 24.4823 18.9406C26.026 17.3969 27.8931 16.625 30.0833 16.625C32.2736 16.625 34.1406 17.3969 35.6844 18.9406C37.2281 20.4844 38 22.3514 38 24.5417C38 26.7319 37.2281 28.599 35.6844 30.1427C34.1406 31.6865 32.2736 32.4583 30.0833 32.4583ZM30.0833 29.2917C31.4028 29.2917 32.5243 28.8299 33.4479 27.9063C34.3715 26.9826 34.8333 25.8611 34.8333 24.5417C34.8333 23.2222 34.3715 22.1007 33.4479 21.1771C32.5243 20.2535 31.4028 19.7917 30.0833 19.7917C28.7639 19.7917 27.6424 20.2535 26.7188 21.1771C25.7951 22.1007 25.3333 23.2222 25.3333 24.5417C25.3333 25.8611 25.7951 26.9826 26.7188 27.9063C27.6424 28.8299 28.7639 29.2917 30.0833 29.2917Z" fill="#706DF7"/>
</svg>
