<svg width="30" height="30" viewBox="0 0 30 30" fill="none" xmlns="http://www.w3.org/2000/svg">
<path d="M27.0998 15.7002C26.8244 18.7323 25.4253 21.552 23.1772 23.6052C20.9291 25.6584 17.9945 26.7968 14.9498 26.7968C11.9052 26.7968 8.9706 25.6584 6.72247 23.6052C4.47435 21.552 3.07517 18.7323 2.7998 15.7002" fill="#8D8BF8"/>
<path d="M27.0998 15.7002C26.8244 18.7323 25.4253 21.552 23.1772 23.6052C20.9291 25.6584 17.9945 26.7968 14.9498 26.7968C11.9052 26.7968 8.9706 25.6584 6.72247 23.6052C4.47435 21.552 3.07517 18.7323 2.7998 15.7002" stroke="black" stroke-width="2" stroke-linecap="round" stroke-linejoin="round"/>
<path d="M4.1001 12.5001C4.68007 10.045 6.07194 7.85751 8.05023 6.2921C10.0285 4.72669 12.4774 3.875 15.0001 3.875C17.5229 3.875 19.9717 4.72669 21.95 6.2921C23.9283 7.85751 25.3202 10.045 25.9001 12.5001" stroke="black" stroke-width="2" stroke-linecap="round" stroke-linejoin="round"/>
<path d="M1 12.5H28.9" stroke="black" stroke-width="2" stroke-linecap="round" stroke-linejoin="round"/>
<path d="M11.3999 17H18.4999" stroke="black" stroke-width="2" stroke-linecap="round" stroke-linejoin="round"/>
<path d="M11.1001 4V1H18.9001V4" fill="#8D8BF8"/>
<path d="M11.1001 4V1H18.9001V4" stroke="black" stroke-width="2" stroke-linecap="round" stroke-linejoin="round"/>
<path d="M7.00012 24.2002L4.1001 28.4002" stroke="black" stroke-width="2" stroke-linecap="round" stroke-linejoin="round"/>
<path d="M22.9004 24.2002L25.9004 28.4002" stroke="black" stroke-width="2" stroke-linecap="round" stroke-linejoin="round"/>
</svg>
