<svg width="13" height="11" viewBox="0 0 13 11" fill="none" xmlns="http://www.w3.org/2000/svg">
<path fill-rule="evenodd" clip-rule="evenodd" d="M1.14959 9.91291C1.3254 10.0887 1.56386 10.1875 1.8125 10.1875H11.1875C11.4361 10.1875 11.6746 10.0887 11.8504 9.91291C12.0262 9.7371 12.125 9.49864 12.125 9.25V2.6875C12.125 2.43886 12.0262 2.2004 11.8504 2.02459C11.6746 1.84877 11.4361 1.75 11.1875 1.75H9.3125L8.375 0.34375H4.625L3.6875 1.75H1.8125C1.56386 1.75 1.3254 1.84877 1.14959 2.02459C0.973772 2.2004 0.875 2.43886 0.875 2.6875V9.25C0.875 9.49864 0.973772 9.7371 1.14959 9.91291ZM8.60938 5.73438C8.60938 6.89935 7.66498 7.84375 6.5 7.84375C5.33502 7.84375 4.39062 6.89935 4.39062 5.73438C4.39062 4.5694 5.33502 3.625 6.5 3.625C7.66498 3.625 8.60938 4.5694 8.60938 5.73438Z" fill="white"/>
</svg>
