<svg width="30" height="30" viewBox="0 0 30 30" fill="none" xmlns="http://www.w3.org/2000/svg">
<path d="M11.6 1H23.2C24.5526 1 25.8498 1.53734 26.8062 2.49377C27.7627 3.45021 28.3 4.74743 28.3 6.10004H12C9.0826 6.10004 6.28472 7.25894 4.22182 9.32184C2.15892 11.3847 1 14.1827 1 17.1C1 20.0174 2.15892 22.8153 4.22182 24.8782C6.28472 26.9411 9.0826 28.1 12 28.1H26.8V21.8L18.1 24.6C17.0381 24.9601 15.9209 25.1294 14.8 25.1C13.5176 25.1003 12.2862 24.5978 11.3701 23.7004C10.4539 22.803 9.92617 21.5821 9.89999 20.3C9.89999 19.0004 10.4162 17.7541 11.3352 16.8352C12.2541 15.9163 13.5004 15.4 14.8 15.4H19C21.4665 15.4 23.832 14.4202 25.5761 12.6761C27.3202 10.932 28.3 8.56655 28.3 6.10004" fill="url(#paint0_linear_456_1185)"/>
<path d="M11.6 1H23.2C24.5526 1 25.8498 1.53734 26.8062 2.49377C27.7627 3.45021 28.3 4.74743 28.3 6.10004M28.3 6.10004H12C9.0826 6.10004 6.28472 7.25894 4.22182 9.32184C2.15892 11.3847 1 14.1827 1 17.1C1 20.0174 2.15892 22.8153 4.22182 24.8782C6.28472 26.9411 9.0826 28.1 12 28.1H26.8V21.8L18.1 24.6C17.0381 24.9601 15.9209 25.1294 14.8 25.1C13.5176 25.1003 12.2862 24.5978 11.3701 23.7004C10.4539 22.803 9.92617 21.5821 9.89999 20.3C9.89999 19.0004 10.4162 17.7541 11.3352 16.8352C12.2541 15.9163 13.5004 15.4 14.8 15.4H19C21.4665 15.4 23.832 14.4202 25.5761 12.6761C27.3202 10.932 28.3 8.56655 28.3 6.10004Z" stroke="black" stroke-width="2" stroke-linecap="round" stroke-linejoin="round"/>
<path d="M13.7002 6.09961V15.4996" stroke="black" stroke-width="2" stroke-linecap="round" stroke-linejoin="round"/>
<path d="M3.5 10.0996L10.8 17.3996" stroke="black" stroke-width="2" stroke-linecap="round" stroke-linejoin="round"/>
<path d="M2 21.7002H10.1" stroke="black" stroke-width="2" stroke-linecap="round" stroke-linejoin="round"/>
<path d="M15.3999 25.2998V28.0999" stroke="black" stroke-width="2" stroke-linecap="round" stroke-linejoin="round"/>
<path d="M19.2 10.6998C19.8628 10.6998 20.4 10.1626 20.4 9.49982C20.4 8.83708 19.8628 8.2998 19.2 8.2998C18.5373 8.2998 18 8.83708 18 9.49982C18 10.1626 18.5373 10.6998 19.2 10.6998Z" fill="black"/>
<defs>
<linearGradient id="paint0_linear_456_1185" x1="13.5" y1="21" x2="24.3754" y2="3.42291" gradientUnits="userSpaceOnUse">
<stop offset="0.181648" stop-color="#FF3358"/>
<stop offset="0.849774" stop-color="#FF7DAC" stop-opacity="0"/>
</linearGradient>
</defs>
</svg>
